<svg xmlns="http://www.w3.org/2000/svg" viewBox="0 0 18 15" enable-background="new 0 0 18 15"><path fill="#000" d="M17.4 2.3l-.3.1c-.6.1-.6 0-.2-.5.2-.2.4-.4.5-.6.3-.5 0-.7-.5-.5-.1.2-.3.3-.5.3-.6.2-1.3-.1-1.8-.4-.6-.4-1.3-.6-2-.6-1 0-2 .4-2.7 1.1-.8.8-1 1.6-1 2.7v.5c0 .3-.4.4-.9.4-1.3-.3-2.4-.7-3.5-1.2-1-.6-2.1-1.2-2.8-2.1-.4-.4-.9-.4-1 .2-.2.4-.2.7-.2 1.1 0 .7.2 1.2.5 1.8 0 .2.2.5.5.7.3.4.3.6-.2.5-.6-.2-.9-.4-.9-.3 0 .9.3 1.7.8 2.4.4.5.7.7 1.2 1s.7.4.5.4h-.8c-.2 0-.3.4.1.8.3.4.6.7.9.9s.8.5 1.2.7c.6.2.7.5.2.7-1.2.7-2.5 1-3.9 1h-.5c-.3 0-.1.2.4.5 1.6.7 3.2 1.1 5.1 1.1 1.4 0 2.6-.2 3.8-.7s2.2-1 3.1-1.7c.8-.7 1.6-1.5 2.2-2.4.7-.9 1.1-1.9 1.4-2.9s.5-2.1.5-3v-.2c0-.1.4-.5.7-.8l.6-.6c.2-.4 0-.6-.5-.4z"/></svg>